<?xml version="1.0" encoding="utf-8"?>
<!-- Generator: Adobe Illustrator 19.0.0, SVG Export Plug-In . SVG Version: 6.00 Build 0)  -->
<svg version="1.1" id="Layer_1" xmlns="http://www.w3.org/2000/svg" xmlns:xlink="http://www.w3.org/1999/xlink" x="0px" y="0px"
	 viewBox="0 0 396.3 124.7" style="enable-background:new 0 0 396.3 124.7;" xml:space="preserve">
<style type="text/css">
	.st0{fill:none;stroke:#000000;stroke-width:4.286;stroke-miterlimit:10;}
</style>
<g>
	<path d="M35.6,52.5c-1.1-7.9-7.9-13.4-15.8-13.4c-7.4,0-14,6.1-14.9,13.4H35.6z M38.5,63.1c-3.2,7.2-10.4,11.8-18.4,11.8
		C9,74.9,0,66.1,0,55c0-10.9,8.7-20.4,19.8-20.4c11.5,0,20.3,8.9,20.3,20.3v1.5H4.8c0.4,7.9,7.2,14.2,15.1,14.2
		c5.6,0,10.6-2.6,13.4-7.5H38.5z"/>
	<path d="M210.4,54.8c0-9.6-7.2-16-15.2-15.6c-8.4,0.4-15.7,6-15.7,15.5c0,8.6,6.8,15.7,15.4,15.7C203.3,70.4,210.4,63.3,210.4,54.8
		 M179.5,43.9c3.4-6,9-9.3,15.9-9.3c6.2,0,12.9,2.8,16.6,9.3c1.5,2.6,3.2,6,3.2,10.9c0,11.1-8.7,20.1-19.8,20.1
		c-6.5,0-12.9-3.4-15.9-9.2v17.9h6.5v4.6h-17.8v-4.6h6.5V39.9h-6.5v-4.6h11.3V43.9z"/>
	<path d="M274.2,54.8c0-8.4-6.8-15.4-15.3-15.4c-8.5,0-15.4,6.8-15.4,15.3c0,8.4,6.8,15.4,15.4,15.4
		C267.3,70.2,274.2,63.3,274.2,54.8 M238.6,54.9c0-11.2,9.1-20.2,20.4-20.2c10.9,0,20.1,9,20.1,19.8c0,11.2-8.9,20.4-20.2,20.4
		C247.6,74.9,238.6,65.9,238.6,54.9"/>
	<path d="M325.4,45.1c-0.1-3.9-3.9-6.5-7.9-6.5c-3.9,0-7.6,2.4-7.6,6.5c0,4.9,4.6,6,8.5,6.8c3,0.6,6.1,1.3,8.7,2.9
		c3.1,1.8,4.8,4.9,4.8,8.4c0,2.5-0.8,4.3-1.7,6c-1.8,3.5-6.8,5.7-11.2,5.7c-4.6,0-8.4-1.7-10.7-5.7v4.6h-4v-11h4
		c0.4,4.7,4.6,8.2,9.8,8.2c4.3,0,8.4-2.9,8.4-7.3c0-5.3-4.6-6.3-8.8-7.1c-3-0.7-6-1.2-8.7-2.9c-2.9-1.8-4.6-4.8-4.6-8.2
		c0-2.6,0.5-4.7,2-6.6c2.3-2.9,6.6-4.3,10.2-4.3c3.6,0,6.8,1.2,8.7,4.3v-3.6h4v9.8H325.4z"/>
	<path d="M391.8,52.5c-1.1-7.9-7.9-13.4-15.8-13.4c-7.4,0-14,6.1-14.9,13.4H391.8z M394.7,63.1c-3.2,7.2-10.4,11.8-18.4,11.8
		c-11.1,0-20.1-8.9-20.1-19.9c0-10.9,8.7-20.4,19.8-20.4c11.5,0,20.3,8.9,20.3,20.3v1.5h-35.3c0.4,7.9,7.2,14.2,15.1,14.2
		c5.6,0,10.6-2.6,13.4-7.5H394.7z"/>
	<path class="st0" d="M153.2,1.4L43.4,123.3 M49.4,1.4l109.8,121.8"/>
	<path d="M388.7,112.5l0.7-0.7c-0.7-0.7-1.3-0.9-2.2-0.9c-1.1,0-2.1,0.5-2.7,1.3V111h-1v9.2h1v-5.6c0-1.5,0.9-2.8,2.5-2.8
		C387.7,111.8,388.2,111.9,388.7,112.5 M370.3,115h-5.4c0.1-0.9,0.1-1.1,0.3-1.7c0.4-1,1.3-1.5,2.4-1.5c1.1,0,2,0.6,2.4,1.5
		C370.2,113.9,370.3,114.2,370.3,115 M364.9,115.8h6.4v-0.4c0-2.8-1.4-4.5-3.7-4.5c-2.3,0-3.7,1.7-3.7,4.7c0,3.1,1.4,4.7,3.9,4.7
		c1.5,0,2.4-0.5,3.3-1.4l-0.7-0.6c-0.8,0.8-1.4,1.1-2.5,1.1C366,119.4,364.9,118.2,364.9,115.8 M350.7,115.6c0,1.9-0.3,3.8-2.6,3.8
		c-2.2,0-2.6-1.9-2.6-3.8c0-1.9,0.3-3.8,2.6-3.8C350.4,111.8,350.7,113.7,350.7,115.6 M350.7,120.2h1v-13.5h-1v5.6
		c-0.8-1.1-1.7-1.3-2.7-1.3c-1,0-1.8,0.3-2.2,0.8c-0.9,0.9-1.2,2.5-1.2,3.9c0,1.4,0.2,3,1.2,3.9c0.5,0.5,1.3,0.8,2.2,0.8
		c1,0,1.9-0.2,2.7-1.3V120.2z M331.4,120.2h1v-5.9c0-1.1-0.3-1.9-0.9-2.5c-0.6-0.6-1.4-0.9-2.4-0.9c-1.1,0-2,0.4-2.7,1.2V111h-1v9.2
		h1v-5.7c0-1.7,0.9-2.7,2.6-2.7c1.7,0,2.5,1,2.5,2.7V120.2z M311.6,120.2h1V111h-1v5.7c0,1.7-0.9,2.7-2.6,2.7s-2.5-1-2.5-2.7V111h-1
		v5.9c0,1.1,0.3,1.9,1,2.5c0.6,0.6,1.4,0.9,2.4,0.9c1.1,0,2-0.4,2.7-1.2V120.2z M288.6,112.3c0,0.6-0.5,1-1,1.4c0,0-0.1,0.1-0.3,0.2
		l-0.2,0.2c-0.8-0.9-1-1.3-1-1.8c0-0.7,0.5-1.3,1.3-1.3C288.1,111,288.6,111.5,288.6,112.3 M286.9,114.9l3,3.6
		c-1,0.9-1.8,1.1-2.6,1.1c-1.4,0-2.3-0.9-2.3-2.2C285,116.2,286,115.6,286.9,114.9L286.9,114.9z M291.2,120.2h0.9l-1.4-1.7
		c0.6-0.8,0.8-1.8,0.8-3h-0.7c0,1.2-0.1,1.8-0.6,2.4l-2.8-3.4c0.2-0.1,0.7-0.5,0.7-0.5c0.6-0.4,1.1-0.9,1.1-1.8c0-1.1-0.9-2-2-2
		c-1.1,0-2,0.9-2,1.9c0,0.9,0.6,1.6,1.1,2.2c-1.1,0.8-2.2,1.5-2.2,3c0,1.7,1.2,2.8,3,2.8c1.6,0,2.6-0.9,3-1.2L291.2,120.2z
		 M270.1,120.2h1v-5.9c0-1.1-0.3-1.9-1-2.5c-0.6-0.6-1.4-0.9-2.4-0.9c-1.4,0-2.4,0.6-3.1,1.7c-0.6-1.1-1.6-1.7-2.9-1.7
		c-1.1,0-2,0.4-2.7,1.2V111h-1v9.2h1v-5.7c0-1.7,0.9-2.7,2.6-2.7c1.7,0,2.5,1,2.5,2.7v5.7h1v-5.9c0-1.6,1-2.6,2.6-2.6
		c1.7,0,2.5,1,2.5,2.7V120.2z M244.1,107.8h1.2v-1.2h-1.2V107.8z M244.2,120.2h1V111h-1V120.2z M230,120.2l2.9-9.2h-1.1l-2.3,8
		l-2.6-8h-1l-2.6,8l-2.3-8H220l2.9,9.2h1l2.6-7.6l2.6,7.6H230z M209.5,117.6c0-1.8-1.2-2.2-2.7-2.4l-1.5-0.1
		c-1.3-0.1-1.9-0.6-1.9-1.5c0-1.1,0.8-1.8,2.3-1.8c1,0,1.9,0.3,2.6,0.8l0.6-0.6c-0.8-0.6-1.9-1-3.2-1c-2,0-3.3,1-3.3,2.6
		c0,1.4,0.9,2.2,2.8,2.4l1.5,0.1c1.2,0.1,1.7,0.6,1.7,1.5c0,1.2-1,1.9-2.8,1.9c-1.3,0-2.3-0.4-3-1.1l-0.7,0.7
		c0.9,0.9,2.1,1.3,3.7,1.3C208.1,120.3,209.5,119.3,209.5,117.6"/>
</g>
</svg>
