<svg id="Layer_1" data-name="Layer 1" xmlns="http://www.w3.org/2000/svg" viewBox="0 0 396.3 124.77"><defs><style>.cls-1{fill:#fff;}</style></defs><title>logo</title><path class="cls-1" d="M35.6,52.5A15.68,15.68,0,0,0,19.8,39.1c-7.4,0-14,6.1-14.9,13.4Zm2.9,10.6A20,20,0,0,1,20.1,74.9,19.93,19.93,0,0,1,0,55C0,44.1,8.7,34.6,19.8,34.6A20,20,0,0,1,40.1,54.9v1.5H4.8A15.19,15.19,0,0,0,19.9,70.6a15,15,0,0,0,13.4-7.5Z" transform="translate(0 0.04)"/><path class="cls-1" d="M210.4,54.8c0-9.6-7.2-16-15.2-15.6-8.4.4-15.7,6-15.7,15.5a15.54,15.54,0,0,0,15.4,15.7,15.73,15.73,0,0,0,15.5-15.6M179.5,43.9a17.58,17.58,0,0,1,15.9-9.3A18.78,18.78,0,0,1,212,43.9a20.73,20.73,0,0,1,3.2,10.9,19.85,19.85,0,0,1-19.8,20.1c-6.5,0-12.9-3.4-15.9-9.2V83.6H186v4.6H168.2V83.6h6.5V39.9h-6.5V35.3h11.3Z" transform="translate(0 0.04)"/><path class="cls-1" d="M274.2,54.8a15.35,15.35,0,1,0-15.3,15.3,15.39,15.39,0,0,0,15.3-15.3m-35.6.1A20.25,20.25,0,0,1,259,34.7c10.9,0,20.1,9,20.1,19.8a20.25,20.25,0,0,1-40.5.4" transform="translate(0 0.04)"/><path class="cls-1" d="M325.4,45.1c-.1-3.9-3.9-6.5-7.9-6.5s-7.6,2.4-7.6,6.5c0,4.9,4.6,6,8.5,6.8a26.27,26.27,0,0,1,8.7,2.9,9.49,9.49,0,0,1,4.8,8.4,12.12,12.12,0,0,1-1.7,6c-1.8,3.5-6.8,5.7-11.2,5.7-4.6,0-8.4-1.7-10.7-5.7v4.6h-4v-11h4c.4,4.7,4.6,8.2,9.8,8.2,4.3,0,8.4-2.9,8.4-7.3,0-5.3-4.6-6.3-8.8-7.1-3-.7-6-1.2-8.7-2.9a9.52,9.52,0,0,1-4.6-8.2,10,10,0,0,1,2-6.6c2.3-2.9,6.6-4.3,10.2-4.3s6.8,1.2,8.7,4.3V35.3h4v9.8Z" transform="translate(0 0.04)"/><path class="cls-1" d="M391.8,52.5A15.68,15.68,0,0,0,376,39.1c-7.4,0-14,6.1-14.9,13.4Zm2.9,10.6A20.16,20.16,0,0,1,356.2,55c0-10.9,8.7-20.4,19.8-20.4a20,20,0,0,1,20.3,20.3v1.5H361a15.19,15.19,0,0,0,15.1,14.2,15,15,0,0,0,13.4-7.5Z" transform="translate(0 0.04)"/><polygon class="cls-1" points="44.99 124.77 41.81 121.9 98.44 59.03 47.81 2.87 50.99 0 101.32 55.83 151.61 0 154.79 2.87 104.21 59.03 160.79 121.8 157.61 124.67 101.32 62.23 44.99 124.77"/><path class="cls-1" d="M388.7,112.5l.7-.7a2.74,2.74,0,0,0-2.2-.9,3.37,3.37,0,0,0-2.7,1.3V111h-1v9.2h1v-5.6a2.55,2.55,0,0,1,2.5-2.8,1.9,1.9,0,0,1,1.7.7M370.3,115h-5.4a6.53,6.53,0,0,1,.3-1.7,2.42,2.42,0,0,1,2.4-1.5,2.56,2.56,0,0,1,2.4,1.5,4.31,4.31,0,0,1,.3,1.7m-5.4.8h6.4v-.4c0-2.8-1.4-4.5-3.7-4.5s-3.7,1.7-3.7,4.7,1.4,4.7,3.9,4.7a4.22,4.22,0,0,0,3.3-1.4l-.7-.6a3.07,3.07,0,0,1-2.5,1.1c-1.9,0-3-1.2-3-3.6m-14.2-.2c0,1.9-.3,3.8-2.6,3.8s-2.6-1.9-2.6-3.8.3-3.8,2.6-3.8,2.6,1.9,2.6,3.8m0,4.6h1V106.7h-1v5.6A3,3,0,0,0,348,111a2.79,2.79,0,0,0-2.2.8,5.69,5.69,0,0,0-1.2,3.9c0,1.4.2,3,1.2,3.9a3.11,3.11,0,0,0,2.2.8,3,3,0,0,0,2.7-1.3Zm-19.3,0h1v-5.9a3.33,3.33,0,0,0-.9-2.5,3.24,3.24,0,0,0-2.4-.9,3.42,3.42,0,0,0-2.7,1.2V111h-1v9.2h1v-5.7a2.4,2.4,0,0,1,2.6-2.7c1.7,0,2.5,1,2.5,2.7v5.7Zm-19.8,0h1V111h-1v5.7a2.4,2.4,0,0,1-2.6,2.7c-1.7,0-2.5-1-2.5-2.7V111h-1v5.9a3,3,0,0,0,1,2.5,3.24,3.24,0,0,0,2.4.9,3.42,3.42,0,0,0,2.7-1.2Zm-23-7.9c0,.6-.5,1-1,1.4a1.24,1.24,0,0,1-.3.2l-.2.2c-.8-.9-1-1.3-1-1.8a1.26,1.26,0,0,1,1.3-1.3,1.18,1.18,0,0,1,1.2,1.3m-1.7,2.6,3,3.6a3.61,3.61,0,0,1-2.6,1.1,2.13,2.13,0,0,1-2.3-2.2c0-1.2,1-1.8,1.9-2.5Zm4.3,5.3h.9l-1.4-1.7a4.82,4.82,0,0,0,.8-3h-.7a3.29,3.29,0,0,1-.6,2.4l-2.8-3.4a6.82,6.82,0,0,0,.7-.5,2.06,2.06,0,0,0,1.1-1.8,2,2,0,0,0-4-.1,3.58,3.58,0,0,0,1.1,2.2c-1.1.8-2.2,1.5-2.2,3a2.73,2.73,0,0,0,3,2.8,4.7,4.7,0,0,0,3-1.2Zm-21.1,0h1v-5.9a3,3,0,0,0-1-2.5,3.24,3.24,0,0,0-2.4-.9,3.45,3.45,0,0,0-3.1,1.7,3.13,3.13,0,0,0-2.9-1.7,3.42,3.42,0,0,0-2.7,1.2V111h-1v9.2h1v-5.7a2.4,2.4,0,0,1,2.6-2.7c1.7,0,2.5,1,2.5,2.7v5.7h1v-5.9a2.42,2.42,0,0,1,2.6-2.6c1.7,0,2.5,1,2.5,2.7v5.8Zm-26-12.4h1.2v-1.2h-1.2Zm.1,12.4h1V111h-1Zm-14.2,0,2.9-9.2h-1.1l-2.3,8-2.6-8h-1l-2.6,8-2.3-8h-1l2.9,9.2h1l2.6-7.6,2.6,7.6Zm-20.5-2.6c0-1.8-1.2-2.2-2.7-2.4l-1.5-.1c-1.3-.1-1.9-.6-1.9-1.5,0-1.1.8-1.8,2.3-1.8a4.46,4.46,0,0,1,2.6.8l.6-.6a5.3,5.3,0,0,0-3.2-1c-2,0-3.3,1-3.3,2.6,0,1.4.9,2.2,2.8,2.4l1.5.1c1.2.1,1.7.6,1.7,1.5,0,1.2-1,1.9-2.8,1.9a4.08,4.08,0,0,1-3-1.1l-.7.7a4.92,4.92,0,0,0,3.7,1.3c2.5-.1,3.9-1.1,3.9-2.8" transform="translate(0 0.04)"/></svg>